<svg xmlns="http://www.w3.org/2000/svg" version="1.1" xmlns:xlink="http://www.w3.org/1999/xlink" xmlns:svgjs="http://svgjs.dev/svgjs" width="1440" height="560" preserveAspectRatio="none" viewBox="0 0 1440 560"><g mask="url(&quot;#SvgjsMask1061&quot;)" fill="none"><rect width="1440" height="560" x="0" y="0" fill="#0e2a47"></rect><path d="M0,476.088C111.822,466.06,229.31,563.851,328.177,510.653C426.61,457.689,448.535,326.228,478.597,218.568C505.071,123.759,498.285,27.607,490.456,-70.517C482.096,-175.295,484.751,-283.228,431.337,-373.755C372.214,-473.957,290.936,-579.575,176.796,-602.112C63.355,-624.511,-36.09,-531.112,-143.046,-487.169C-237.494,-448.365,-344.192,-433.213,-414.508,-359.173C-486.287,-283.593,-518.758,-179.889,-532.94,-76.625C-547.059,26.182,-520.358,125.407,-494.871,226C-463.998,347.85,-480.504,516.415,-368.316,573.11C-252.661,631.558,-129.067,487.662,0,476.088" fill="#0b2035"></path><path d="M1440 1161.48C1551.224 1166.769 1650.228 1090.649 1733.5729999999999 1016.809 1808.884 950.087 1857.2930000000001 860.408 1887.984 764.587 1916.13 676.7139999999999 1907.192 585.771 1901.125 493.7 1894.545 393.837 1913.101 282.346 1851.033 203.83800000000002 1788.524 124.77199999999999 1675.18 116.72699999999998 1579.077 86.34699999999998 1480.827 55.28800000000001 1384.685 9.690000000000055 1282.665 24.166000000000054 1172.4850000000001 39.799999999999955 1066.327 89.101 989.861 169.95299999999997 911.725 252.572 848.35 362.449 855.395 475.946 862.182 585.288 969.424 655.227 1025.812 749.153 1074.3809999999999 830.054 1096.964 923.145 1163.837 989.7180000000001 1242.253 1067.782 1329.477 1156.225 1440 1161.48" fill="#123559"></path></g><defs><mask id="SvgjsMask1061"><rect width="1440" height="560" fill="#ffffff"></rect></mask></defs></svg>